<mxfile host="app.diagrams.net" modified="2021-04-22T05:31:23.039Z" agent="5.0 (Windows NT 10.0; Win64; x64) AppleWebKit/537.36 (KHTML, like Gecko) Chrome/90.0.4430.85 Safari/537.36" etag="VTW-s-70DkJIgjRQr93R" version="14.6.5" type="github">
  <diagram id="os8BwO5idqNauNAGnZHe" name="Page-1">
    <mxGraphModel dx="1131" dy="605" grid="0" gridSize="10" guides="1" tooltips="1" connect="1" arrows="1" fold="1" page="1" pageScale="1" pageWidth="827" pageHeight="1169" math="0" shadow="0">
      <root>
        <mxCell id="0" />
        <mxCell id="1" parent="0" />
        <mxCell id="9S0N9jBB2vzTJLr5Gff_-25" value="Board System&lt;br&gt;&lt;br&gt;&lt;br&gt;&lt;br&gt;&lt;br&gt;&lt;br&gt;&lt;br&gt;&lt;br&gt;&lt;br&gt;&lt;br&gt;&lt;br&gt;&lt;br&gt;&lt;br&gt;&lt;br&gt;&lt;br&gt;&lt;br&gt;&lt;br&gt;&lt;br&gt;&lt;br&gt;&lt;br&gt;&lt;br&gt;&lt;br&gt;&lt;br&gt;&lt;br&gt;&lt;br&gt;&lt;br&gt;&lt;br&gt;&lt;br&gt;&lt;br&gt;&lt;br&gt;&lt;br&gt;&lt;br&gt;&lt;br&gt;&lt;br&gt;&lt;br&gt;&lt;br&gt;&lt;br&gt;&lt;br&gt;&lt;br&gt;&lt;br&gt;&lt;br&gt;&lt;br&gt;" style="rounded=1;whiteSpace=wrap;html=1;strokeColor=#0E8088;fillColor=#FCFCFC;" parent="1" vertex="1">
          <mxGeometry x="125" y="565" width="320" height="540" as="geometry" />
        </mxCell>
        <mxCell id="9S0N9jBB2vzTJLr5Gff_-110" value="Suggestion Management(SU)&lt;br&gt;&lt;br&gt;&lt;br&gt;&lt;br&gt;&lt;br&gt;&lt;br&gt;&lt;br&gt;&lt;br&gt;&lt;br&gt;&lt;br&gt;&lt;br&gt;&lt;br&gt;&lt;br&gt;&lt;br&gt;&lt;br&gt;&lt;br&gt;&lt;br&gt;&lt;br&gt;&lt;br&gt;" style="rounded=1;whiteSpace=wrap;html=1;fillColor=#E8F6F7;strokeColor=#76B39D;" parent="1" vertex="1">
          <mxGeometry x="277" y="616" width="163" height="230" as="geometry" />
        </mxCell>
        <mxCell id="9S0N9jBB2vzTJLr5Gff_-77" value="" style="group" parent="1" vertex="1" connectable="0">
          <mxGeometry x="50" y="35" width="506" height="444" as="geometry" />
        </mxCell>
        <mxCell id="9S0N9jBB2vzTJLr5Gff_-24" value="Map System&lt;br&gt;&lt;br&gt;&lt;br&gt;&lt;br&gt;&lt;br&gt;&lt;br&gt;&lt;br&gt;&lt;br&gt;&lt;br&gt;&lt;br&gt;&lt;br&gt;&lt;br&gt;&lt;br&gt;&lt;br&gt;&lt;br&gt;&lt;br&gt;&lt;br&gt;&lt;br&gt;&lt;br&gt;&lt;br&gt;&lt;br&gt;&lt;br&gt;&lt;br&gt;&lt;br&gt;&lt;br&gt;&lt;br&gt;&lt;br&gt;&lt;br&gt;&lt;br&gt;&lt;br&gt;&lt;br&gt;&lt;br&gt;&lt;br&gt;&lt;br&gt;&lt;br&gt;" style="rounded=1;whiteSpace=wrap;html=1;strokeColor=#0e8088;fillColor=#F7F9FC;" parent="9S0N9jBB2vzTJLr5Gff_-77" vertex="1">
          <mxGeometry x="70" width="330" height="444" as="geometry" />
        </mxCell>
        <mxCell id="9S0N9jBB2vzTJLr5Gff_-1" value="System Staff" style="shape=umlActor;verticalLabelPosition=bottom;verticalAlign=top;html=1;outlineConnect=0;fillColor=none;strokeColor=#333333;" parent="9S0N9jBB2vzTJLr5Gff_-77" vertex="1">
          <mxGeometry y="192" width="30" height="60" as="geometry" />
        </mxCell>
        <mxCell id="9S0N9jBB2vzTJLr5Gff_-3" value="User" style="shape=umlActor;verticalLabelPosition=bottom;verticalAlign=top;html=1;outlineConnect=0;fillColor=none;strokeColor=#333333;" parent="9S0N9jBB2vzTJLr5Gff_-77" vertex="1">
          <mxGeometry x="445" y="169" width="30" height="60" as="geometry" />
        </mxCell>
        <mxCell id="9S0N9jBB2vzTJLr5Gff_-61" value="" style="group" parent="9S0N9jBB2vzTJLr5Gff_-77" vertex="1" connectable="0">
          <mxGeometry x="100" y="44" width="110" height="380" as="geometry" />
        </mxCell>
        <mxCell id="9S0N9jBB2vzTJLr5Gff_-19" value="Map Management(MA)&lt;br&gt;&lt;br&gt;&lt;br&gt;&lt;br&gt;&lt;br&gt;&lt;br&gt;&lt;br&gt;&lt;br&gt;&lt;br&gt;&lt;br&gt;&lt;br&gt;&lt;br&gt;&lt;br&gt;&lt;br&gt;&lt;br&gt;&lt;br&gt;&lt;br&gt;&lt;br&gt;&lt;br&gt;&lt;br&gt;&lt;br&gt;&lt;br&gt;&lt;br&gt;&lt;br&gt;&lt;br&gt;&lt;br&gt;&lt;br&gt;&lt;br&gt;&lt;br&gt;&lt;br&gt;&lt;br&gt;&lt;br&gt;" style="rounded=1;whiteSpace=wrap;html=1;strokeColor=#10739e;fillColor=#E0EDFF;" parent="9S0N9jBB2vzTJLr5Gff_-61" vertex="1">
          <mxGeometry width="110" height="380" as="geometry" />
        </mxCell>
        <mxCell id="9S0N9jBB2vzTJLr5Gff_-6" value="&lt;font style=&quot;font-size: 10px&quot;&gt;MA04&lt;br&gt;Create Facility Mark&lt;/font&gt;" style="ellipse;whiteSpace=wrap;html=1;strokeColor=#6c8ebf;fillColor=#C2D9FC;" parent="9S0N9jBB2vzTJLr5Gff_-61" vertex="1">
          <mxGeometry x="20" y="195" width="70" height="50" as="geometry" />
        </mxCell>
        <mxCell id="9S0N9jBB2vzTJLr5Gff_-7" value="&lt;font style=&quot;font-size: 10px&quot;&gt;MA05&lt;br&gt;Update Facility Mark&lt;/font&gt;" style="ellipse;whiteSpace=wrap;html=1;strokeColor=#6c8ebf;fillColor=#C2D9FC;" parent="9S0N9jBB2vzTJLr5Gff_-61" vertex="1">
          <mxGeometry x="20" y="256" width="70" height="50" as="geometry" />
        </mxCell>
        <mxCell id="9S0N9jBB2vzTJLr5Gff_-8" value="&lt;font style=&quot;font-size: 10px&quot;&gt;MA06&lt;br&gt;Delete Facility Mark&lt;/font&gt;" style="ellipse;whiteSpace=wrap;html=1;strokeColor=#6c8ebf;fillColor=#C2D9FC;" parent="9S0N9jBB2vzTJLr5Gff_-61" vertex="1">
          <mxGeometry x="20" y="316" width="70" height="50" as="geometry" />
        </mxCell>
        <mxCell id="9S0N9jBB2vzTJLr5Gff_-9" value="&lt;font style=&quot;font-size: 10px&quot;&gt;MA01&lt;br&gt;Get Direction&lt;/font&gt;" style="ellipse;whiteSpace=wrap;html=1;strokeColor=#6c8ebf;fillColor=#C2D9FC;" parent="9S0N9jBB2vzTJLr5Gff_-61" vertex="1">
          <mxGeometry x="20" y="18" width="70" height="50" as="geometry" />
        </mxCell>
        <mxCell id="9S0N9jBB2vzTJLr5Gff_-10" value="&lt;font style=&quot;font-size: 10px&quot;&gt;MA03&lt;br&gt;Retrieve Facility Mark&lt;/font&gt;" style="ellipse;whiteSpace=wrap;html=1;strokeColor=#6c8ebf;fillColor=#C2D9FC;" parent="9S0N9jBB2vzTJLr5Gff_-61" vertex="1">
          <mxGeometry x="20" y="135" width="70" height="50" as="geometry" />
        </mxCell>
        <mxCell id="9S0N9jBB2vzTJLr5Gff_-12" value="&lt;font style=&quot;font-size: 10px&quot;&gt;MA02&lt;br&gt;Retrieve Map&lt;/font&gt;" style="ellipse;whiteSpace=wrap;html=1;strokeColor=#6c8ebf;fillColor=#C2D9FC;" parent="9S0N9jBB2vzTJLr5Gff_-61" vertex="1">
          <mxGeometry x="20" y="75" width="70" height="50" as="geometry" />
        </mxCell>
        <mxCell id="9S0N9jBB2vzTJLr5Gff_-62" value="" style="group" parent="9S0N9jBB2vzTJLr5Gff_-77" vertex="1" connectable="0">
          <mxGeometry x="256" y="44" width="110" height="260" as="geometry" />
        </mxCell>
        <mxCell id="9S0N9jBB2vzTJLr5Gff_-18" value="Memo Management(ME)&lt;br&gt;&lt;br&gt;&lt;br&gt;&lt;br&gt;&lt;br&gt;&lt;br&gt;&lt;br&gt;&lt;br&gt;&lt;br&gt;&lt;br&gt;&lt;br&gt;&lt;br&gt;&lt;br&gt;&lt;br&gt;&lt;br&gt;&lt;br&gt;&lt;br&gt;&lt;br&gt;&lt;br&gt;&lt;br&gt;&lt;br&gt;&lt;br&gt;&lt;br&gt;" style="rounded=1;whiteSpace=wrap;html=1;fillColor=#E8F6F7;strokeColor=#76B39D;" parent="9S0N9jBB2vzTJLr5Gff_-62" vertex="1">
          <mxGeometry width="110" height="260" as="geometry" />
        </mxCell>
        <mxCell id="9S0N9jBB2vzTJLr5Gff_-14" value="&lt;font style=&quot;font-size: 10px&quot;&gt;ME01&lt;br&gt;Create Memo&lt;/font&gt;" style="ellipse;whiteSpace=wrap;html=1;strokeColor=#0e8088;fillColor=#BBEDE8;" parent="9S0N9jBB2vzTJLr5Gff_-62" vertex="1">
          <mxGeometry x="19" y="18" width="70" height="50" as="geometry" />
        </mxCell>
        <mxCell id="9S0N9jBB2vzTJLr5Gff_-15" value="&lt;font style=&quot;font-size: 10px&quot;&gt;ME02&lt;br&gt;Retrieve Memo&lt;/font&gt;" style="ellipse;whiteSpace=wrap;html=1;strokeColor=#0e8088;fillColor=#BBEDE8;" parent="9S0N9jBB2vzTJLr5Gff_-62" vertex="1">
          <mxGeometry x="19" y="75" width="70" height="50" as="geometry" />
        </mxCell>
        <mxCell id="9S0N9jBB2vzTJLr5Gff_-16" value="&lt;font style=&quot;font-size: 10px&quot;&gt;ME03&lt;br&gt;Update Memo&lt;/font&gt;" style="ellipse;whiteSpace=wrap;html=1;strokeColor=#0e8088;fillColor=#BBEDE8;" parent="9S0N9jBB2vzTJLr5Gff_-62" vertex="1">
          <mxGeometry x="19" y="135" width="70" height="50" as="geometry" />
        </mxCell>
        <mxCell id="9S0N9jBB2vzTJLr5Gff_-17" value="&lt;font style=&quot;font-size: 10px&quot;&gt;ME04&lt;br&gt;Delete Memo&lt;/font&gt;" style="ellipse;whiteSpace=wrap;html=1;strokeColor=#0e8088;fillColor=#BBEDE8;" parent="9S0N9jBB2vzTJLr5Gff_-62" vertex="1">
          <mxGeometry x="19" y="195" width="70" height="50" as="geometry" />
        </mxCell>
        <mxCell id="9S0N9jBB2vzTJLr5Gff_-64" value="" style="endArrow=none;html=1;exitX=1;exitY=0.5;exitDx=0;exitDy=0;" parent="9S0N9jBB2vzTJLr5Gff_-77" source="9S0N9jBB2vzTJLr5Gff_-14" edge="1">
          <mxGeometry width="50" height="50" relative="1" as="geometry">
            <mxPoint x="260" y="304" as="sourcePoint" />
            <mxPoint x="450" y="164" as="targetPoint" />
          </mxGeometry>
        </mxCell>
        <mxCell id="9S0N9jBB2vzTJLr5Gff_-65" value="" style="endArrow=none;html=1;" parent="9S0N9jBB2vzTJLr5Gff_-77" source="9S0N9jBB2vzTJLr5Gff_-15" edge="1">
          <mxGeometry width="50" height="50" relative="1" as="geometry">
            <mxPoint x="355" y="97" as="sourcePoint" />
            <mxPoint x="440" y="174" as="targetPoint" />
          </mxGeometry>
        </mxCell>
        <mxCell id="9S0N9jBB2vzTJLr5Gff_-66" value="" style="endArrow=none;html=1;exitX=1;exitY=0.5;exitDx=0;exitDy=0;" parent="9S0N9jBB2vzTJLr5Gff_-77" source="9S0N9jBB2vzTJLr5Gff_-16" edge="1">
          <mxGeometry width="50" height="50" relative="1" as="geometry">
            <mxPoint x="365" y="107" as="sourcePoint" />
            <mxPoint x="440" y="194" as="targetPoint" />
          </mxGeometry>
        </mxCell>
        <mxCell id="9S0N9jBB2vzTJLr5Gff_-67" value="" style="endArrow=none;html=1;exitX=1;exitY=0.5;exitDx=0;exitDy=0;" parent="9S0N9jBB2vzTJLr5Gff_-77" source="9S0N9jBB2vzTJLr5Gff_-17" edge="1">
          <mxGeometry width="50" height="50" relative="1" as="geometry">
            <mxPoint x="375" y="117" as="sourcePoint" />
            <mxPoint x="440" y="204" as="targetPoint" />
          </mxGeometry>
        </mxCell>
        <mxCell id="9S0N9jBB2vzTJLr5Gff_-68" value="" style="endArrow=none;html=1;exitX=1;exitY=0.5;exitDx=0;exitDy=0;" parent="9S0N9jBB2vzTJLr5Gff_-77" source="9S0N9jBB2vzTJLr5Gff_-9" edge="1">
          <mxGeometry width="50" height="50" relative="1" as="geometry">
            <mxPoint x="385" y="127" as="sourcePoint" />
            <mxPoint x="440" y="174" as="targetPoint" />
          </mxGeometry>
        </mxCell>
        <mxCell id="9S0N9jBB2vzTJLr5Gff_-69" value="" style="endArrow=none;html=1;exitX=1;exitY=0.5;exitDx=0;exitDy=0;" parent="9S0N9jBB2vzTJLr5Gff_-77" source="9S0N9jBB2vzTJLr5Gff_-12" edge="1">
          <mxGeometry width="50" height="50" relative="1" as="geometry">
            <mxPoint x="395" y="137" as="sourcePoint" />
            <mxPoint x="440" y="184" as="targetPoint" />
          </mxGeometry>
        </mxCell>
        <mxCell id="9S0N9jBB2vzTJLr5Gff_-70" value="" style="endArrow=none;html=1;entryX=0;entryY=0.5;entryDx=0;entryDy=0;" parent="9S0N9jBB2vzTJLr5Gff_-77" target="9S0N9jBB2vzTJLr5Gff_-10" edge="1">
          <mxGeometry width="50" height="50" relative="1" as="geometry">
            <mxPoint x="50" y="214" as="sourcePoint" />
            <mxPoint x="490" y="234" as="targetPoint" />
          </mxGeometry>
        </mxCell>
        <mxCell id="9S0N9jBB2vzTJLr5Gff_-72" value="" style="endArrow=none;html=1;entryX=0;entryY=0.5;entryDx=0;entryDy=0;" parent="9S0N9jBB2vzTJLr5Gff_-77" target="9S0N9jBB2vzTJLr5Gff_-6" edge="1">
          <mxGeometry width="50" height="50" relative="1" as="geometry">
            <mxPoint x="50" y="224" as="sourcePoint" />
            <mxPoint x="129.99999999999704" y="214" as="targetPoint" />
          </mxGeometry>
        </mxCell>
        <mxCell id="9S0N9jBB2vzTJLr5Gff_-73" value="" style="endArrow=none;html=1;entryX=0;entryY=0.5;entryDx=0;entryDy=0;" parent="9S0N9jBB2vzTJLr5Gff_-77" target="9S0N9jBB2vzTJLr5Gff_-7" edge="1">
          <mxGeometry width="50" height="50" relative="1" as="geometry">
            <mxPoint x="50" y="234" as="sourcePoint" />
            <mxPoint x="139.99999999999704" y="224" as="targetPoint" />
          </mxGeometry>
        </mxCell>
        <mxCell id="9S0N9jBB2vzTJLr5Gff_-74" value="" style="endArrow=none;html=1;entryX=0;entryY=0.5;entryDx=0;entryDy=0;" parent="9S0N9jBB2vzTJLr5Gff_-77" target="9S0N9jBB2vzTJLr5Gff_-8" edge="1">
          <mxGeometry width="50" height="50" relative="1" as="geometry">
            <mxPoint x="50" y="244" as="sourcePoint" />
            <mxPoint x="149.99999999999704" y="234" as="targetPoint" />
          </mxGeometry>
        </mxCell>
        <mxCell id="9S0N9jBB2vzTJLr5Gff_-75" value="" style="endArrow=none;html=1;entryX=0;entryY=0.5;entryDx=0;entryDy=0;" parent="9S0N9jBB2vzTJLr5Gff_-77" target="9S0N9jBB2vzTJLr5Gff_-12" edge="1">
          <mxGeometry width="50" height="50" relative="1" as="geometry">
            <mxPoint x="50" y="204" as="sourcePoint" />
            <mxPoint x="159.99999999999704" y="244" as="targetPoint" />
          </mxGeometry>
        </mxCell>
        <mxCell id="H-9pgvWS_5h5iuOldSry-32" value="" style="endArrow=none;html=1;exitX=1;exitY=0.5;exitDx=0;exitDy=0;" parent="1" source="9S0N9jBB2vzTJLr5Gff_-10" edge="1">
          <mxGeometry width="50" height="50" relative="1" as="geometry">
            <mxPoint x="282" y="298" as="sourcePoint" />
            <mxPoint x="488" y="225" as="targetPoint" />
          </mxGeometry>
        </mxCell>
        <mxCell id="H-9pgvWS_5h5iuOldSry-60" value="" style="group" parent="1" vertex="1" connectable="0">
          <mxGeometry x="584" y="565" width="204" height="509" as="geometry" />
        </mxCell>
        <mxCell id="H-9pgvWS_5h5iuOldSry-6" value="User Management(US)&lt;br&gt;&lt;br&gt;&lt;br&gt;&lt;br&gt;&lt;br&gt;&lt;br&gt;&lt;br&gt;&lt;br&gt;&lt;br&gt;&lt;br&gt;&lt;br&gt;&lt;br&gt;&lt;br&gt;&lt;br&gt;&lt;br&gt;&lt;br&gt;&lt;br&gt;&lt;br&gt;&lt;br&gt;&lt;br&gt;&lt;br&gt;&lt;br&gt;&lt;br&gt;&lt;br&gt;&lt;br&gt;&lt;br&gt;&lt;br&gt;&lt;br&gt;&lt;br&gt;&lt;br&gt;&lt;br&gt;&lt;br&gt;&lt;br&gt;&lt;br&gt;&lt;br&gt;&lt;br&gt;&lt;br&gt;&lt;br&gt;&lt;br&gt;&lt;br&gt;&lt;br&gt;" style="rounded=1;whiteSpace=wrap;html=1;strokeColor=#10739e;fillColor=#E0EDFF;" parent="H-9pgvWS_5h5iuOldSry-60" vertex="1">
          <mxGeometry x="94" width="110" height="509" as="geometry" />
        </mxCell>
        <mxCell id="H-9pgvWS_5h5iuOldSry-4" value="User" style="shape=umlActor;verticalLabelPosition=bottom;verticalAlign=top;html=1;outlineConnect=0;fillColor=none;strokeColor=#333333;" parent="H-9pgvWS_5h5iuOldSry-60" vertex="1">
          <mxGeometry y="154" width="30" height="60" as="geometry" />
        </mxCell>
        <mxCell id="H-9pgvWS_5h5iuOldSry-25" value="" style="endArrow=none;html=1;entryX=0;entryY=0.5;entryDx=0;entryDy=0;" parent="H-9pgvWS_5h5iuOldSry-60" target="H-9pgvWS_5h5iuOldSry-11" edge="1">
          <mxGeometry x="-6" y="-44" width="50" height="50" as="geometry">
            <mxPoint x="44" y="170" as="sourcePoint" />
            <mxPoint x="484" y="190" as="targetPoint" />
          </mxGeometry>
        </mxCell>
        <mxCell id="H-9pgvWS_5h5iuOldSry-26" value="" style="endArrow=none;html=1;entryX=0;entryY=0.5;entryDx=0;entryDy=0;" parent="H-9pgvWS_5h5iuOldSry-60" target="H-9pgvWS_5h5iuOldSry-7" edge="1">
          <mxGeometry x="-6" y="-44" width="50" height="50" as="geometry">
            <mxPoint x="44" y="180" as="sourcePoint" />
            <mxPoint x="123.99999999999704" y="170" as="targetPoint" />
          </mxGeometry>
        </mxCell>
        <mxCell id="H-9pgvWS_5h5iuOldSry-27" value="" style="endArrow=none;html=1;entryX=0;entryY=0.5;entryDx=0;entryDy=0;" parent="H-9pgvWS_5h5iuOldSry-60" target="H-9pgvWS_5h5iuOldSry-8" edge="1">
          <mxGeometry x="-6" y="-44" width="50" height="50" as="geometry">
            <mxPoint x="44" y="190" as="sourcePoint" />
            <mxPoint x="133.99999999999704" y="180" as="targetPoint" />
          </mxGeometry>
        </mxCell>
        <mxCell id="H-9pgvWS_5h5iuOldSry-28" value="" style="endArrow=none;html=1;entryX=0;entryY=0.5;entryDx=0;entryDy=0;" parent="H-9pgvWS_5h5iuOldSry-60" target="H-9pgvWS_5h5iuOldSry-9" edge="1">
          <mxGeometry x="-6" y="-44" width="50" height="50" as="geometry">
            <mxPoint x="44" y="200" as="sourcePoint" />
            <mxPoint x="143.99999999999704" y="190" as="targetPoint" />
          </mxGeometry>
        </mxCell>
        <mxCell id="H-9pgvWS_5h5iuOldSry-7" value="&lt;font style=&quot;font-size: 10px&quot;&gt;US04&lt;br&gt;Secede&lt;br&gt;&lt;/font&gt;" style="ellipse;whiteSpace=wrap;html=1;strokeColor=#6c8ebf;fillColor=#C2D9FC;" parent="H-9pgvWS_5h5iuOldSry-60" vertex="1">
          <mxGeometry x="114" y="195" width="70" height="50" as="geometry" />
        </mxCell>
        <mxCell id="H-9pgvWS_5h5iuOldSry-8" value="&lt;font style=&quot;font-size: 10px&quot;&gt;US05&lt;br&gt;Create Profile&lt;/font&gt;" style="ellipse;whiteSpace=wrap;html=1;strokeColor=#6c8ebf;fillColor=#C2D9FC;" parent="H-9pgvWS_5h5iuOldSry-60" vertex="1">
          <mxGeometry x="114" y="256" width="70" height="50" as="geometry" />
        </mxCell>
        <mxCell id="H-9pgvWS_5h5iuOldSry-9" value="&lt;font style=&quot;font-size: 10px&quot;&gt;US06&lt;br&gt;Retrieve Profile&lt;/font&gt;" style="ellipse;whiteSpace=wrap;html=1;strokeColor=#6c8ebf;fillColor=#C2D9FC;" parent="H-9pgvWS_5h5iuOldSry-60" vertex="1">
          <mxGeometry x="114" y="316" width="70" height="50" as="geometry" />
        </mxCell>
        <mxCell id="H-9pgvWS_5h5iuOldSry-10" value="&lt;font style=&quot;font-size: 10px&quot;&gt;US01&lt;br&gt;Register&lt;/font&gt;" style="ellipse;whiteSpace=wrap;html=1;strokeColor=#6c8ebf;fillColor=#C2D9FC;" parent="H-9pgvWS_5h5iuOldSry-60" vertex="1">
          <mxGeometry x="114" y="18" width="70" height="50" as="geometry" />
        </mxCell>
        <mxCell id="H-9pgvWS_5h5iuOldSry-11" value="&lt;font style=&quot;font-size: 10px&quot;&gt;US03&lt;br&gt;Logout&lt;/font&gt;" style="ellipse;whiteSpace=wrap;html=1;strokeColor=#6c8ebf;fillColor=#C2D9FC;" parent="H-9pgvWS_5h5iuOldSry-60" vertex="1">
          <mxGeometry x="114" y="135" width="70" height="50" as="geometry" />
        </mxCell>
        <mxCell id="H-9pgvWS_5h5iuOldSry-12" value="&lt;font style=&quot;font-size: 10px&quot;&gt;US02&lt;br&gt;Login&lt;/font&gt;" style="ellipse;whiteSpace=wrap;html=1;strokeColor=#6c8ebf;fillColor=#C2D9FC;" parent="H-9pgvWS_5h5iuOldSry-60" vertex="1">
          <mxGeometry x="114" y="75" width="70" height="50" as="geometry" />
        </mxCell>
        <mxCell id="H-9pgvWS_5h5iuOldSry-55" value="&lt;font style=&quot;font-size: 10px&quot;&gt;US07&lt;br&gt;Update Profile&lt;/font&gt;" style="ellipse;whiteSpace=wrap;html=1;strokeColor=#6c8ebf;fillColor=#C2D9FC;" parent="H-9pgvWS_5h5iuOldSry-60" vertex="1">
          <mxGeometry x="114" y="380" width="70" height="50" as="geometry" />
        </mxCell>
        <mxCell id="H-9pgvWS_5h5iuOldSry-56" value="&lt;font style=&quot;font-size: 10px&quot;&gt;US08&lt;br&gt;Delete Profile&lt;/font&gt;" style="ellipse;whiteSpace=wrap;html=1;strokeColor=#6c8ebf;fillColor=#C2D9FC;" parent="H-9pgvWS_5h5iuOldSry-60" vertex="1">
          <mxGeometry x="114" y="441" width="70" height="50" as="geometry" />
        </mxCell>
        <mxCell id="H-9pgvWS_5h5iuOldSry-57" value="" style="endArrow=none;html=1;entryX=0;entryY=0.5;entryDx=0;entryDy=0;" parent="H-9pgvWS_5h5iuOldSry-60" target="H-9pgvWS_5h5iuOldSry-10" edge="1">
          <mxGeometry width="50" height="50" relative="1" as="geometry">
            <mxPoint x="44" y="145" as="sourcePoint" />
            <mxPoint x="434" y="263" as="targetPoint" />
          </mxGeometry>
        </mxCell>
        <mxCell id="H-9pgvWS_5h5iuOldSry-29" value="" style="endArrow=none;html=1;entryX=0;entryY=0.5;entryDx=0;entryDy=0;" parent="H-9pgvWS_5h5iuOldSry-60" target="H-9pgvWS_5h5iuOldSry-12" edge="1">
          <mxGeometry x="-6" y="-44" width="50" height="50" as="geometry">
            <mxPoint x="44" y="160" as="sourcePoint" />
            <mxPoint x="153.99999999999704" y="200" as="targetPoint" />
          </mxGeometry>
        </mxCell>
        <mxCell id="H-9pgvWS_5h5iuOldSry-58" value="" style="endArrow=none;html=1;entryX=0;entryY=0.5;entryDx=0;entryDy=0;" parent="H-9pgvWS_5h5iuOldSry-60" target="H-9pgvWS_5h5iuOldSry-56" edge="1">
          <mxGeometry width="50" height="50" relative="1" as="geometry">
            <mxPoint x="37" y="238" as="sourcePoint" />
            <mxPoint x="434" y="263" as="targetPoint" />
          </mxGeometry>
        </mxCell>
        <mxCell id="H-9pgvWS_5h5iuOldSry-59" value="" style="endArrow=none;html=1;entryX=0;entryY=0.5;entryDx=0;entryDy=0;" parent="H-9pgvWS_5h5iuOldSry-60" target="H-9pgvWS_5h5iuOldSry-55" edge="1">
          <mxGeometry width="50" height="50" relative="1" as="geometry">
            <mxPoint x="42" y="219" as="sourcePoint" />
            <mxPoint x="434" y="263" as="targetPoint" />
          </mxGeometry>
        </mxCell>
        <mxCell id="9S0N9jBB2vzTJLr5Gff_-109" value="User" style="shape=umlActor;verticalLabelPosition=bottom;verticalAlign=top;html=1;outlineConnect=0;strokeColor=#333333;fillColor=none;" parent="1" vertex="1">
          <mxGeometry x="476" y="781.5" width="30" height="60" as="geometry" />
        </mxCell>
        <mxCell id="9S0N9jBB2vzTJLr5Gff_-128" value="" style="group" parent="1" vertex="1" connectable="0">
          <mxGeometry x="145" y="616" width="120" height="470" as="geometry" />
        </mxCell>
        <mxCell id="9S0N9jBB2vzTJLr5Gff_-120" value="Board Management(BO)&lt;br&gt;&lt;br&gt;&lt;br&gt;&lt;br&gt;&lt;br&gt;&lt;br&gt;&lt;br&gt;&lt;br&gt;&lt;br&gt;&lt;br&gt;&lt;br&gt;&lt;br&gt;&lt;br&gt;&lt;br&gt;&lt;br&gt;&lt;br&gt;&lt;br&gt;&lt;br&gt;&lt;br&gt;&lt;br&gt;&lt;br&gt;&lt;br&gt;&lt;br&gt;&lt;br&gt;&lt;br&gt;&lt;br&gt;&lt;br&gt;&lt;br&gt;&lt;br&gt;&lt;br&gt;&lt;br&gt;&lt;br&gt;&lt;br&gt;&lt;br&gt;&lt;br&gt;&lt;br&gt;&lt;br&gt;&lt;br&gt;" style="rounded=1;whiteSpace=wrap;html=1;strokeColor=#10739e;fillColor=#E0EDFF;" parent="9S0N9jBB2vzTJLr5Gff_-128" vertex="1">
          <mxGeometry width="120" height="470" as="geometry" />
        </mxCell>
        <mxCell id="9S0N9jBB2vzTJLr5Gff_-33" value="&lt;font style=&quot;font-size: 10px&quot;&gt;BO6&lt;br&gt;Retrieve Board Group&lt;/font&gt;" style="ellipse;whiteSpace=wrap;html=1;fillColor=#C2D9FC;strokeColor=#6C8EBF;" parent="9S0N9jBB2vzTJLr5Gff_-128" vertex="1">
          <mxGeometry x="23" y="286" width="70" height="50" as="geometry" />
        </mxCell>
        <mxCell id="9S0N9jBB2vzTJLr5Gff_-29" value="&lt;font style=&quot;font-size: 10px&quot;&gt;BO5&lt;br&gt;Create Board Group&lt;/font&gt;" style="ellipse;whiteSpace=wrap;html=1;fillColor=#C2D9FC;strokeColor=#6C8EBF;" parent="9S0N9jBB2vzTJLr5Gff_-128" vertex="1">
          <mxGeometry x="23" y="230" width="70" height="50" as="geometry" />
        </mxCell>
        <mxCell id="9S0N9jBB2vzTJLr5Gff_-30" value="&lt;font style=&quot;font-size: 10px&quot;&gt;BO7&lt;br&gt;Update Board Group&lt;/font&gt;" style="ellipse;whiteSpace=wrap;html=1;fillColor=#C2D9FC;strokeColor=#6C8EBF;" parent="9S0N9jBB2vzTJLr5Gff_-128" vertex="1">
          <mxGeometry x="23" y="342" width="70" height="50" as="geometry" />
        </mxCell>
        <mxCell id="9S0N9jBB2vzTJLr5Gff_-31" value="&lt;font style=&quot;font-size: 10px&quot;&gt;BO8&lt;br&gt;Delete Board Group&lt;/font&gt;" style="ellipse;whiteSpace=wrap;html=1;fillColor=#C2D9FC;strokeColor=#6C8EBF;" parent="9S0N9jBB2vzTJLr5Gff_-128" vertex="1">
          <mxGeometry x="23" y="400" width="70" height="50" as="geometry" />
        </mxCell>
        <mxCell id="H-9pgvWS_5h5iuOldSry-35" value="" style="group" parent="9S0N9jBB2vzTJLr5Gff_-128" vertex="1" connectable="0">
          <mxGeometry x="22" y="15" width="71" height="210" as="geometry" />
        </mxCell>
        <mxCell id="9S0N9jBB2vzTJLr5Gff_-26" value="&lt;font style=&quot;font-size: 10px&quot;&gt;BO2&lt;br&gt;Retrieve Board&lt;/font&gt;" style="ellipse;whiteSpace=wrap;html=1;fillColor=#C2D9FC;strokeColor=#6C8EBF;" parent="H-9pgvWS_5h5iuOldSry-35" vertex="1">
          <mxGeometry y="53" width="70" height="50" as="geometry" />
        </mxCell>
        <mxCell id="9S0N9jBB2vzTJLr5Gff_-27" value="&lt;font style=&quot;font-size: 10px&quot;&gt;BO3&lt;br&gt;Update Board&lt;/font&gt;" style="ellipse;whiteSpace=wrap;html=1;fillColor=#C2D9FC;strokeColor=#6C8EBF;" parent="H-9pgvWS_5h5iuOldSry-35" vertex="1">
          <mxGeometry y="106" width="70" height="50" as="geometry" />
        </mxCell>
        <mxCell id="9S0N9jBB2vzTJLr5Gff_-32" value="&lt;font style=&quot;font-size: 10px&quot;&gt;BO1&lt;br&gt;Create Board&lt;/font&gt;" style="ellipse;whiteSpace=wrap;html=1;fillColor=#C2D9FC;strokeColor=#6C8EBF;" parent="H-9pgvWS_5h5iuOldSry-35" vertex="1">
          <mxGeometry width="70" height="50" as="geometry" />
        </mxCell>
        <mxCell id="9S0N9jBB2vzTJLr5Gff_-28" value="&lt;font style=&quot;font-size: 10px&quot;&gt;BO4&lt;br&gt;Delete Board&lt;/font&gt;" style="ellipse;whiteSpace=wrap;html=1;fillColor=#C2D9FC;strokeColor=#6C8EBF;" parent="H-9pgvWS_5h5iuOldSry-35" vertex="1">
          <mxGeometry x="1" y="160" width="70" height="50" as="geometry" />
        </mxCell>
        <mxCell id="9S0N9jBB2vzTJLr5Gff_-150" value="" style="endArrow=none;html=1;exitX=0;exitY=0.5;exitDx=0;exitDy=0;" parent="1" source="9S0N9jBB2vzTJLr5Gff_-39" edge="1">
          <mxGeometry x="45" y="565" width="50" height="50" as="geometry">
            <mxPoint x="307" y="796" as="sourcePoint" />
            <mxPoint x="94" y="742" as="targetPoint" />
          </mxGeometry>
        </mxCell>
        <mxCell id="H-9pgvWS_5h5iuOldSry-34" value="" style="group" parent="1" vertex="1" connectable="0">
          <mxGeometry x="45" y="719" width="60" height="80" as="geometry" />
        </mxCell>
        <mxCell id="9S0N9jBB2vzTJLr5Gff_-41" value="Board Staff" style="shape=umlActor;verticalLabelPosition=bottom;verticalAlign=top;html=1;outlineConnect=0;strokeColor=#333333;fillColor=none;" parent="H-9pgvWS_5h5iuOldSry-34" vertex="1">
          <mxGeometry y="20" width="30" height="60" as="geometry" />
        </mxCell>
        <mxCell id="9S0N9jBB2vzTJLr5Gff_-135" value="" style="endArrow=none;html=1;exitX=0;exitY=0.5;exitDx=0;exitDy=0;" parent="H-9pgvWS_5h5iuOldSry-34" source="9S0N9jBB2vzTJLr5Gff_-32" edge="1">
          <mxGeometry y="-154" width="50" height="50" as="geometry">
            <mxPoint x="-10" y="40" as="sourcePoint" />
            <mxPoint x="41" as="targetPoint" />
          </mxGeometry>
        </mxCell>
        <mxCell id="9S0N9jBB2vzTJLr5Gff_-136" value="" style="endArrow=none;html=1;exitX=0;exitY=0.5;exitDx=0;exitDy=0;" parent="H-9pgvWS_5h5iuOldSry-34" source="9S0N9jBB2vzTJLr5Gff_-26" edge="1">
          <mxGeometry y="-154" width="50" height="50" as="geometry">
            <mxPoint x="132" y="-53" as="sourcePoint" />
            <mxPoint x="40" y="11" as="targetPoint" />
          </mxGeometry>
        </mxCell>
        <mxCell id="9S0N9jBB2vzTJLr5Gff_-137" value="" style="endArrow=none;html=1;exitX=0;exitY=1;exitDx=0;exitDy=0;" parent="H-9pgvWS_5h5iuOldSry-34" source="9S0N9jBB2vzTJLr5Gff_-27" edge="1">
          <mxGeometry y="-154" width="50" height="50" as="geometry">
            <mxPoint x="142" y="-43" as="sourcePoint" />
            <mxPoint x="50" y="35" as="targetPoint" />
          </mxGeometry>
        </mxCell>
        <mxCell id="9S0N9jBB2vzTJLr5Gff_-138" value="" style="endArrow=none;html=1;exitX=0;exitY=0.5;exitDx=0;exitDy=0;" parent="H-9pgvWS_5h5iuOldSry-34" source="9S0N9jBB2vzTJLr5Gff_-28" edge="1">
          <mxGeometry y="-154" width="50" height="50" as="geometry">
            <mxPoint x="152" y="-33" as="sourcePoint" />
            <mxPoint x="52" y="49" as="targetPoint" />
          </mxGeometry>
        </mxCell>
        <mxCell id="H-9pgvWS_5h5iuOldSry-36" value="" style="group;rotation=90;" parent="1" vertex="1" connectable="0">
          <mxGeometry x="45" y="899" width="40" height="70" as="geometry" />
        </mxCell>
        <mxCell id="9S0N9jBB2vzTJLr5Gff_-42" value="System Staff" style="shape=umlActor;verticalLabelPosition=bottom;verticalAlign=top;html=1;outlineConnect=0;strokeColor=#333333;fillColor=none;" parent="H-9pgvWS_5h5iuOldSry-36" vertex="1">
          <mxGeometry y="10" width="30" height="60" as="geometry" />
        </mxCell>
        <mxCell id="9S0N9jBB2vzTJLr5Gff_-144" value="" style="endArrow=none;html=1;exitX=0;exitY=0.5;exitDx=0;exitDy=0;" parent="H-9pgvWS_5h5iuOldSry-36" source="9S0N9jBB2vzTJLr5Gff_-29" edge="1">
          <mxGeometry y="-334" width="50" height="50" as="geometry">
            <mxPoint x="202" y="-163" as="sourcePoint" />
            <mxPoint x="40" y="20" as="targetPoint" />
          </mxGeometry>
        </mxCell>
        <mxCell id="9S0N9jBB2vzTJLr5Gff_-145" value="" style="endArrow=none;html=1;exitX=0;exitY=0.5;exitDx=0;exitDy=0;" parent="H-9pgvWS_5h5iuOldSry-36" source="9S0N9jBB2vzTJLr5Gff_-33" edge="1">
          <mxGeometry y="-334" width="50" height="50" as="geometry">
            <mxPoint x="212" y="-153" as="sourcePoint" />
            <mxPoint x="40" y="30" as="targetPoint" />
          </mxGeometry>
        </mxCell>
        <mxCell id="9S0N9jBB2vzTJLr5Gff_-146" value="" style="endArrow=none;html=1;exitX=0;exitY=0.5;exitDx=0;exitDy=0;" parent="H-9pgvWS_5h5iuOldSry-36" source="9S0N9jBB2vzTJLr5Gff_-30" edge="1">
          <mxGeometry y="-334" width="50" height="50" as="geometry">
            <mxPoint x="222" y="-143" as="sourcePoint" />
            <mxPoint x="40" y="40" as="targetPoint" />
          </mxGeometry>
        </mxCell>
        <mxCell id="9S0N9jBB2vzTJLr5Gff_-147" value="" style="endArrow=none;html=1;exitX=0;exitY=0.5;exitDx=0;exitDy=0;" parent="H-9pgvWS_5h5iuOldSry-36" source="9S0N9jBB2vzTJLr5Gff_-31" edge="1">
          <mxGeometry y="-334" width="50" height="50" as="geometry">
            <mxPoint x="232" y="-133" as="sourcePoint" />
            <mxPoint x="40" y="60" as="targetPoint" />
          </mxGeometry>
        </mxCell>
        <mxCell id="H-9pgvWS_5h5iuOldSry-33" value="" style="endArrow=block;endSize=16;endFill=0;html=1;" parent="1" edge="1">
          <mxGeometry x="-687" y="309" width="160" as="geometry">
            <mxPoint x="61" y="889" as="sourcePoint" />
            <mxPoint x="61" y="832" as="targetPoint" />
            <mxPoint x="-2" y="20" as="offset" />
          </mxGeometry>
        </mxCell>
        <mxCell id="H-9pgvWS_5h5iuOldSry-42" value="" style="endArrow=none;html=1;exitX=1;exitY=0.5;exitDx=0;exitDy=0;" parent="1" source="9S0N9jBB2vzTJLr5Gff_-26" edge="1">
          <mxGeometry x="30" y="565" width="50" height="50" as="geometry">
            <mxPoint x="159" y="841" as="sourcePoint" />
            <mxPoint x="463" y="807" as="targetPoint" />
          </mxGeometry>
        </mxCell>
        <mxCell id="9S0N9jBB2vzTJLr5Gff_-38" value="&lt;font style=&quot;font-size: 10px&quot;&gt;SU01&lt;br&gt;Suggest&lt;/font&gt;" style="ellipse;whiteSpace=wrap;html=1;fillColor=#BBEDE8;strokeColor=#0E8088;" parent="1" vertex="1">
          <mxGeometry x="328" y="622" width="70" height="50" as="geometry" />
        </mxCell>
        <mxCell id="9S0N9jBB2vzTJLr5Gff_-39" value="&lt;font style=&quot;font-size: 10px&quot;&gt;SU04&lt;br&gt;Receive Suggestion&lt;/font&gt;" style="ellipse;whiteSpace=wrap;html=1;fillColor=#BBEDE8;strokeColor=#0E8088;" parent="1" vertex="1">
          <mxGeometry x="319" y="781.5" width="71" height="50" as="geometry" />
        </mxCell>
        <mxCell id="H-9pgvWS_5h5iuOldSry-62" value="&lt;font style=&quot;font-size: 10px&quot;&gt;SU02&lt;br&gt;Suggest to Board Staff&lt;/font&gt;" style="ellipse;whiteSpace=wrap;html=1;fillColor=#BBEDE8;strokeColor=#0E8088;" parent="1" vertex="1">
          <mxGeometry x="280" y="684" width="70" height="50" as="geometry" />
        </mxCell>
        <mxCell id="H-9pgvWS_5h5iuOldSry-63" value="&lt;font style=&quot;font-size: 10px&quot;&gt;SU03&lt;br&gt;Suggest to System Staff&lt;/font&gt;" style="ellipse;whiteSpace=wrap;html=1;fillColor=#BBEDE8;strokeColor=#0E8088;" parent="1" vertex="1">
          <mxGeometry x="373" y="684" width="70" height="50" as="geometry" />
        </mxCell>
        <mxCell id="H-9pgvWS_5h5iuOldSry-64" value="" style="endArrow=none;html=1;" parent="1" target="H-9pgvWS_5h5iuOldSry-63" edge="1">
          <mxGeometry width="50" height="50" relative="1" as="geometry">
            <mxPoint x="477" y="775" as="sourcePoint" />
            <mxPoint x="518" y="636" as="targetPoint" />
          </mxGeometry>
        </mxCell>
        <mxCell id="H-9pgvWS_5h5iuOldSry-67" value="" style="endArrow=none;html=1;exitX=1;exitY=0.5;exitDx=0;exitDy=0;" parent="1" source="9S0N9jBB2vzTJLr5Gff_-33" edge="1">
          <mxGeometry width="50" height="50" relative="1" as="geometry">
            <mxPoint x="546" y="734" as="sourcePoint" />
            <mxPoint x="464" y="818" as="targetPoint" />
          </mxGeometry>
        </mxCell>
        <mxCell id="H-9pgvWS_5h5iuOldSry-68" value="" style="endArrow=none;html=1;" parent="1" target="H-9pgvWS_5h5iuOldSry-62" edge="1">
          <mxGeometry width="50" height="50" relative="1" as="geometry">
            <mxPoint x="460" y="788" as="sourcePoint" />
            <mxPoint x="433.07185014659717" y="770.7992853046349" as="targetPoint" />
          </mxGeometry>
        </mxCell>
        <mxCell id="N4UWgmycgdBa2s2ml8Kc-1" value="Board Group :&amp;nbsp;Board groups are categories that group bulletin boards by personality." style="text;html=1;strokeColor=none;fillColor=none;align=center;verticalAlign=middle;whiteSpace=wrap;rounded=0;" parent="1" vertex="1">
          <mxGeometry x="140" y="1136" width="254" height="20" as="geometry" />
        </mxCell>
        <mxCell id="C6UQK94G6QktyT_C8RKH-2" value="" style="endArrow=block;endSize=16;endFill=0;html=1;entryX=0.5;entryY=1;entryDx=0;entryDy=0;" edge="1" parent="1" target="9S0N9jBB2vzTJLr5Gff_-38">
          <mxGeometry x="-677" y="319" width="160" as="geometry">
            <mxPoint x="363" y="708" as="sourcePoint" />
            <mxPoint x="71" y="842" as="targetPoint" />
            <mxPoint x="-2" y="20" as="offset" />
            <Array as="points">
              <mxPoint x="363" y="703" />
            </Array>
          </mxGeometry>
        </mxCell>
        <mxCell id="C6UQK94G6QktyT_C8RKH-4" value="" style="endArrow=none;html=1;exitX=1;exitY=0.5;exitDx=0;exitDy=0;" edge="1" parent="1" source="H-9pgvWS_5h5iuOldSry-62" target="H-9pgvWS_5h5iuOldSry-63">
          <mxGeometry width="50" height="50" relative="1" as="geometry">
            <mxPoint x="385" y="828" as="sourcePoint" />
            <mxPoint x="435" y="778" as="targetPoint" />
          </mxGeometry>
        </mxCell>
      </root>
    </mxGraphModel>
  </diagram>
</mxfile>
